<svg width="1440" height="1167" viewBox="0 0 1440 1167" fill="none" xmlns="http://www.w3.org/2000/svg">
<path d="M1091.33 1167C998.794 1166.9 910.073 1130.54 844.638 1065.9C779.202 1001.25 742.393 913.604 742.296 822.181V345.912C742.296 340.118 739.969 334.559 735.821 330.462C731.674 326.365 726.047 324.07 720.182 324.07C714.317 324.07 708.695 326.365 704.548 330.462C700.401 334.559 698.069 340.118 698.069 345.912V822.181C698.069 913.633 661.296 1001.34 595.839 1066.01C530.383 1130.67 441.604 1167 349.034 1167C256.464 1167 167.686 1130.67 102.23 1066.01C36.7727 1001.34 0 913.633 0 822.181V13.4766H326.921V822.181C326.921 827.975 329.248 833.534 333.395 837.631C337.543 841.729 343.169 844.023 349.034 844.023C354.9 844.023 360.522 841.729 364.669 837.631C368.816 833.534 371.148 827.975 371.148 822.181V345.912C371.148 254.171 408.037 166.186 473.701 101.315C539.365 36.4437 628.426 0 721.289 0C814.152 0 903.213 36.4437 968.877 101.315C1034.54 166.186 1071.43 254.171 1071.43 345.912V822.181C1071.38 825.033 1071.91 827.862 1072.98 830.511C1074.05 833.159 1075.64 835.571 1077.67 837.605C1079.69 839.638 1082.11 841.258 1084.77 842.361C1087.43 843.463 1090.29 844.023 1093.17 844.023C1099.04 844.023 1104.67 841.729 1108.81 837.631C1112.96 833.534 1115.29 827.975 1115.29 822.181V13.4766H1440V822.181C1439.81 913.511 1403.02 1001.05 1337.69 1065.67C1272.35 1130.28 1183.78 1166.71 1091.33 1167Z" fill="#FBC504"/>
</svg>
